<svg aria-hidden="true" style="width:0;height:0;position:absolute;overflow:hidden" xmlns="http://www.w3.org/2000/svg"><defs><symbol id="icon-heart-logo" viewBox="0 0 32 32"><path fill="#ff6b08" style="fill:var(--color1,#ff6b08)" d="m16 30.144-2.24-2.218C5.44 20.639 0 15.728 0 9.708 0 4.797 3.84.995 8.8.995c2.72 0 5.44 1.267 7.2 3.327C17.76 2.263 20.48.995 23.2.995c4.96 0 8.8 3.802 8.8 8.713 0 6.02-5.44 10.931-13.76 18.218L16 30.144z"/></symbol><symbol viewBox="0 0 38 38" id="git-hub"><path d="M12 0C5.374 0 0 5.373 0 12c0 5.302 3.438 9.8 8.207 11.387.599.111.793-.261.793-.577v-2.234c-3.338.726-4.033-1.416-4.033-1.416-.546-1.387-1.333-1.756-1.333-1.756-1.089-.745.083-.729.083-.729 1.205.084 1.839 1.237 1.839 1.237 1.07 1.834 2.807 1.304 3.492.997.107-.775.418-1.305.762-1.604-2.665-.305-5.467-1.334-5.467-5.931 0-1.311.469-2.381 1.236-3.221-.124-.303-.535-1.524.117-3.176 0 0 1.008-.322 3.301 1.23A11.509 11.509 0 0 1 12 5.803c1.02.005 2.047.138 3.006.404 2.291-1.552 3.297-1.23 3.297-1.23.653 1.653.242 2.874.118 3.176.77.84 1.235 1.911 1.235 3.221 0 4.609-2.807 5.624-5.479 5.921.43.372.823 1.102.823 2.222v3.293c0 .319.192.694.801.576C20.566 21.797 24 17.3 24 12c0-6.627-5.373-12-12-12z"/></symbol><symbol viewBox="0 0 38 38" id="linkedin"><path d="M19 0H5a5 5 0 0 0-5 5v14a5 5 0 0 0 5 5h14a5 5 0 0 0 5-5V5a5 5 0 0 0-5-5zM8 19H5V8h3v11zM6.5 6.732c-.966 0-1.75-.79-1.75-1.764s.784-1.764 1.75-1.764 1.75.79 1.75 1.764-.783 1.764-1.75 1.764zM20 19h-3v-5.604c0-3.368-4-3.113-4 0V19h-3V8h3v1.765c1.396-2.586 7-2.777 7 2.476V19z"/></symbol><symbol viewBox="0 0 400 400" id="profilecat"><path fill-rule="evenodd" d="M151.35 307.2h113c0-16.06-1.15-19.25-27.75-19.25 4.25-12.75 21.52-43.59 31.12-43.59 8.5 0 18.63.47 18.63 19.84 0 22 37.02 57.48 46 43 13.38-21.56-23-14.98-23-67 0-71.15 41.52-61.02 41.52-101 0-20-5.52-22.7-5.52-37 0-18.893 16.65-17.796 13.41-33.465-2.24-10.823-3.99-19.503-5.29-32.591-.93-9.287-1.23-19.185-10.87-18.787-11.33.468-15.63 20.417-33.25 21.848-17.58 1.427-32.57-14.967-39.38-12.625-6.74 2.321-4.62 20.625-.62 33.625 6.29 20.432 20 46.995-5 50.995s-68 8-99 49-29.86 89.12-42 104c-40.759 49.96-82.526 29.45-82.526 71 0 18.61 31.525 32 36.525 26s-42.485-23.87 10.646-45c45.395-18.04 49.445-21.72 63.355-9z"/></symbol></defs></svg>